<svg xmlns="http://www.w3.org/2000/svg" xml:space="preserve" style="fill-rule:evenodd;clip-rule:evenodd;stroke-linejoin:round;stroke-miterlimit:2" viewBox="0 0 1024 1024">
  <path d="M501.136 768.794C472.283 734.315 430.354 719.97 368 716.455c-54.68-3.082-70.883-18.889-65.556-63.955 4.465-37.782 5.728-49.347 8.571-78.5 6.314-64.726 11.616-74.41 51.166-93.453 12.753-6.14 29.827-13.547 31.23-13.547.198 0-3.182 3.446-7.511 7.659-55.599 54.106-35.772 170.344 36.146 209.124 13.171 7.102 32.097 13.058 41.496 13.058 40.215 8.042 137.788-50.763 103.273-120.668-16.491-33.401-68.415-50.521-97.989-30.567-34.507 23.282-24.392 69.326 15.575 69.326 8.149-.575 18.674-4.661 22.73-11.051 1.123 4.761-3.205 12.338-7.172 15.414-36.111 27.998-104.934-30.836-51.034-82.332 48.153-47.936 142.022-16.364 157.691 53.039 8.835 39.134 4.625 69.137-36.422 112.775-22.863 24.306-24.093 24.456-62.164 63.326-5.237 5.347-4.247 5.855-6.894 2.691Zm117.739-55.044c34.841-51.323 31.446-117.455-8.932-173.973-5.195-10.123-22.804-28.538-39.11-36.095-61.721-36.344-141.002-12.484-157.844 47.503-15.523 55.291 35.073 106.486 83.504 82.882 18.496-8.864 26.154-28.785 13.34-47.474-13.436 25.225-38.056 16.718-41.673.059-2.77-36.454 48.65-50.213 69.401-8.227 24.494 49.561-45.485 97.933-101.036 69.84-64.917-32.831-67.315-122.669-4.829-180.931 33.13-30.892 33.27-23.105 34.073-44.002.467-12.169 1.439-13.22 8.099-6.083 25.724 27.564 43.507 20.437 65.882.832 7.124-6.242 7.25-6.095 7.25.58 0 31.482 8.892 31.18 69 51.732 41.658 14.244 49.632 17.994 59.541 27.998 8.609 8.693 13.701 18.051 16.942 31.142 2.37 9.568 2.857 13.465 6.569 52.467 1.125 11.825 3.391 32.916 5.035 46.869 6.287 53.348 5.73 60.592-5.45 70.898-11.714 10.797-73.772 19.69-76.66 20.237-8.373 1.588-8.395 1.544-3.102-6.254ZM497.279 413.053c-19.827-7.526-36.247-24.809-45.31-42.328-2.866-5.54-3.279-8.323-4.613-8.572-10.072-1.885-19.039-38.153-9.433-38.153 3.517 0 4.176-2.519 3.061-11.691-5.397-44.39 20.661-74.146 64.516-73.667 39.361.429 62.546 19.947 66.571 56.038.982 8.814.863 12.831-.699 23.562-.484 3.322-.26 3.85 1.994 4.707 9.896 3.762 5.666 31.269-5.796 37.694-3.343 1.873-3.385 3.239-5.259 7.394-10.782 23.905-44.119 52.955-65.032 45.016Z" style="fill:#82be0f;fill-rule:nonzero" transform="translate(-458.302 -459.228) scale(1.92439)"/>
</svg>
